<svg width="30" height="32" viewBox="0 0 30 32" fill="none" xmlns="http://www.w3.org/2000/svg">
<path fill-rule="evenodd" clip-rule="evenodd" d="M14.7246 0C12.9317 0 11.4782 1.45346 11.4782 3.24638V10.7079L4.85346 6.92233C3.30602 6.03804 1.32742 6.56284 0.433962 8.09443C-0.45938 9.62579 0.0707373 11.5842 1.61818 12.4684L13.1535 19.06C14.1294 19.6176 15.3198 19.6177 16.2957 19.06L27.831 12.4684C29.3785 11.5842 29.9086 9.62579 29.0152 8.09443C28.1218 6.56284 26.1432 6.03804 24.5958 6.92233L17.971 10.7079V3.24638C17.971 1.45346 16.5175 0 14.7246 0Z" fill="#DDDDDD"/>
<path fill-rule="evenodd" clip-rule="evenodd" d="M14.7246 19.9008L4.85346 25.5414C3.30602 26.4257 1.32742 25.9009 0.433962 24.3693C-0.45938 22.838 0.0707373 20.8795 1.61818 19.9954L13.1535 13.4038C14.1294 12.8461 15.3198 12.846 16.2957 13.4038L27.831 19.9954C29.3785 20.8795 29.9086 22.838 29.0152 24.3693C28.1218 25.9009 26.1432 26.4257 24.5958 25.5414L14.7246 19.9008ZM14.7246 25.2754C12.8676 25.2754 11.3623 26.7807 11.3623 28.6377C11.3623 30.4947 12.8676 32 14.7246 32C16.5816 32 18.0869 30.4947 18.0869 28.6377C18.0869 26.7807 16.5816 25.2754 14.7246 25.2754Z" fill="#1E1E1E"/>
</svg>
